<svg width="286" height="140" viewBox="0 0 286 140" fill="none" xmlns="http://www.w3.org/2000/svg">
<g filter="url(#filter0_f_1_298)">
<rect x="47" y="40" width="199" height="60" rx="10" fill="#F53838" fill-opacity="0.35"/>
</g>
<rect y="32.766" width="250" height="60" rx="10" fill="#F53838"/>
<path d="M83.244 68.426C82.2307 68.426 81.356 68.2607 80.62 67.93C79.8947 67.5887 79.3293 67.098 78.924 66.458C78.5293 65.8073 78.3107 65.018 78.268 64.09C78.2573 63.6313 78.252 63.146 78.252 62.634C78.252 62.1113 78.2573 61.6153 78.268 61.146C78.3107 60.2393 78.5347 59.4713 78.94 58.842C79.3453 58.2127 79.916 57.7327 80.652 57.402C81.388 57.0713 82.252 56.906 83.244 56.906C84.044 56.906 84.7533 57.0073 85.372 57.21C85.9907 57.402 86.508 57.6633 86.924 57.994C87.3507 58.3247 87.6707 58.6873 87.884 59.082C88.108 59.4767 88.2253 59.866 88.236 60.25C88.2467 60.346 88.2147 60.426 88.14 60.49C88.076 60.554 87.996 60.586 87.9 60.586H85.564C85.4467 60.586 85.356 60.57 85.292 60.538C85.2387 60.4953 85.1907 60.4367 85.148 60.362C85.0733 60.202 84.9613 60.0367 84.812 59.866C84.6733 59.6847 84.476 59.53 84.22 59.402C83.9747 59.274 83.6493 59.21 83.244 59.21C82.636 59.21 82.156 59.37 81.804 59.69C81.4627 60.01 81.276 60.522 81.244 61.226C81.212 62.1433 81.212 63.0713 81.244 64.01C81.276 64.7567 81.4733 65.2953 81.836 65.626C82.1987 65.9567 82.6787 66.122 83.276 66.122C83.6813 66.122 84.0387 66.0527 84.348 65.914C84.668 65.7753 84.9187 65.562 85.1 65.274C85.2813 64.9753 85.372 64.5967 85.372 64.138V63.834H83.868C83.7507 63.834 83.6493 63.7967 83.564 63.722C83.4893 63.6367 83.452 63.5353 83.452 63.418V62.234C83.452 62.1167 83.4893 62.0207 83.564 61.946C83.6493 61.8607 83.7507 61.818 83.868 61.818H87.9C88.0173 61.818 88.1133 61.8607 88.188 61.946C88.2627 62.0207 88.3 62.1167 88.3 62.234V64.058C88.3 64.9753 88.092 65.7593 87.676 66.41C87.26 67.0607 86.668 67.562 85.9 67.914C85.1427 68.2553 84.2573 68.426 83.244 68.426ZM93.7996 68.426C92.541 68.426 91.5383 68.0847 90.7916 67.402C90.045 66.7193 89.6556 65.706 89.6236 64.362C89.6236 64.2873 89.6236 64.1913 89.6236 64.074C89.6236 63.9567 89.6236 63.866 89.6236 63.802C89.6556 62.9593 89.8423 62.2393 90.1836 61.642C90.5356 61.034 91.0156 60.5753 91.6236 60.266C92.2423 59.946 92.9623 59.786 93.7836 59.786C94.7223 59.786 95.4956 59.9727 96.1036 60.346C96.7223 60.7193 97.1863 61.226 97.4956 61.866C97.805 62.506 97.9596 63.2367 97.9596 64.058V64.442C97.9596 64.5593 97.917 64.6553 97.8316 64.73C97.757 64.8047 97.6663 64.842 97.5596 64.842H92.4396C92.4396 64.8527 92.4396 64.8687 92.4396 64.89C92.4396 64.9113 92.4396 64.9327 92.4396 64.954C92.4503 65.2633 92.5036 65.546 92.5996 65.802C92.6956 66.058 92.845 66.2607 93.0476 66.41C93.2503 66.5593 93.4956 66.634 93.7836 66.634C93.997 66.634 94.173 66.602 94.3116 66.538C94.461 66.4633 94.5836 66.3833 94.6796 66.298C94.7756 66.202 94.8503 66.122 94.9036 66.058C94.9996 65.9513 95.0743 65.8873 95.1276 65.866C95.1916 65.834 95.2876 65.818 95.4156 65.818H97.3996C97.5063 65.818 97.5916 65.85 97.6556 65.914C97.7303 65.9673 97.7623 66.0473 97.7516 66.154C97.741 66.3353 97.6503 66.554 97.4796 66.81C97.309 67.066 97.0583 67.322 96.7276 67.578C96.4076 67.8233 96.0023 68.026 95.5116 68.186C95.021 68.346 94.4503 68.426 93.7996 68.426ZM92.4396 63.258H95.1436V63.226C95.1436 62.8847 95.0903 62.586 94.9836 62.33C94.8876 62.074 94.733 61.8767 94.5196 61.738C94.317 61.5993 94.0716 61.53 93.7836 61.53C93.4956 61.53 93.2503 61.5993 93.0476 61.738C92.8556 61.8767 92.7063 62.074 92.5996 62.33C92.493 62.586 92.4396 62.8847 92.4396 63.226V63.258ZM103.7 68.266C103.017 68.266 102.425 68.1593 101.924 67.946C101.433 67.722 101.055 67.3807 100.788 66.922C100.521 66.4527 100.388 65.85 100.388 65.114V62.042H99.14C99.0227 62.042 98.9213 62.0047 98.836 61.93C98.7613 61.8553 98.724 61.7593 98.724 61.642V60.346C98.724 60.2287 98.7613 60.1327 98.836 60.058C98.9213 59.9833 99.0227 59.946 99.14 59.946H100.388V57.306C100.388 57.1887 100.425 57.0927 100.5 57.018C100.585 56.9433 100.681 56.906 100.788 56.906H102.644C102.761 56.906 102.857 56.9433 102.932 57.018C103.007 57.0927 103.044 57.1887 103.044 57.306V59.946H105.044C105.161 59.946 105.257 59.9833 105.332 60.058C105.407 60.1327 105.444 60.2287 105.444 60.346V61.642C105.444 61.7593 105.407 61.8553 105.332 61.93C105.257 62.0047 105.161 62.042 105.044 62.042H103.044V64.89C103.044 65.2527 103.113 65.5407 103.252 65.754C103.391 65.9673 103.625 66.074 103.956 66.074H105.188C105.305 66.074 105.401 66.1113 105.476 66.186C105.551 66.2607 105.588 66.3567 105.588 66.474V67.866C105.588 67.9833 105.551 68.0793 105.476 68.154C105.401 68.2287 105.305 68.266 105.188 68.266H103.7ZM114.671 68.426C113.604 68.426 112.719 68.2767 112.015 67.978C111.311 67.6687 110.778 67.2687 110.415 66.778C110.052 66.2873 109.86 65.7647 109.839 65.21C109.839 65.1247 109.871 65.05 109.935 64.986C110.01 64.9113 110.095 64.874 110.191 64.874H112.207C112.356 64.874 112.468 64.9007 112.543 64.954C112.628 65.0073 112.703 65.0767 112.767 65.162C112.852 65.322 112.97 65.4767 113.119 65.626C113.279 65.7753 113.482 65.898 113.727 65.994C113.983 66.0793 114.298 66.122 114.671 66.122C115.29 66.122 115.754 66.026 116.063 65.834C116.383 65.642 116.543 65.3807 116.543 65.05C116.543 64.8153 116.458 64.6233 116.287 64.474C116.116 64.314 115.839 64.1753 115.455 64.058C115.082 63.93 114.58 63.802 113.951 63.674C113.14 63.5033 112.447 63.2847 111.871 63.018C111.306 62.7407 110.874 62.3833 110.575 61.946C110.276 61.498 110.127 60.9433 110.127 60.282C110.127 59.6313 110.308 59.05 110.671 58.538C111.044 58.026 111.562 57.626 112.223 57.338C112.884 57.05 113.668 56.906 114.575 56.906C115.311 56.906 115.956 57.002 116.511 57.194C117.076 57.386 117.551 57.642 117.935 57.962C118.319 58.282 118.607 58.6233 118.799 58.986C119.002 59.338 119.108 59.6847 119.119 60.026C119.119 60.1113 119.087 60.1913 119.023 60.266C118.959 60.33 118.879 60.362 118.783 60.362H116.671C116.554 60.362 116.452 60.3407 116.367 60.298C116.282 60.2553 116.207 60.186 116.143 60.09C116.079 59.8553 115.908 59.6527 115.631 59.482C115.364 59.3007 115.012 59.21 114.575 59.21C114.106 59.21 113.738 59.2953 113.471 59.466C113.215 59.626 113.087 59.8767 113.087 60.218C113.087 60.4313 113.156 60.618 113.295 60.778C113.444 60.938 113.684 61.0767 114.015 61.194C114.356 61.3113 114.82 61.434 115.407 61.562C116.378 61.7433 117.162 61.9727 117.759 62.25C118.356 62.5167 118.794 62.8687 119.071 63.306C119.348 63.7327 119.487 64.2713 119.487 64.922C119.487 65.6473 119.279 66.2767 118.863 66.81C118.458 67.3327 117.892 67.7327 117.167 68.01C116.442 68.2873 115.61 68.426 114.671 68.426ZM125.169 68.266C124.486 68.266 123.894 68.1593 123.393 67.946C122.902 67.722 122.523 67.3807 122.257 66.922C121.99 66.4527 121.857 65.85 121.857 65.114V62.042H120.609C120.491 62.042 120.39 62.0047 120.305 61.93C120.23 61.8553 120.193 61.7593 120.193 61.642V60.346C120.193 60.2287 120.23 60.1327 120.305 60.058C120.39 59.9833 120.491 59.946 120.609 59.946H121.857V57.306C121.857 57.1887 121.894 57.0927 121.969 57.018C122.054 56.9433 122.15 56.906 122.257 56.906H124.113C124.23 56.906 124.326 56.9433 124.401 57.018C124.475 57.0927 124.513 57.1887 124.513 57.306V59.946H126.513C126.63 59.946 126.726 59.9833 126.801 60.058C126.875 60.1327 126.913 60.2287 126.913 60.346V61.642C126.913 61.7593 126.875 61.8553 126.801 61.93C126.726 62.0047 126.63 62.042 126.513 62.042H124.513V64.89C124.513 65.2527 124.582 65.5407 124.721 65.754C124.859 65.9673 125.094 66.074 125.425 66.074H126.657C126.774 66.074 126.87 66.1113 126.945 66.186C127.019 66.2607 127.057 66.3567 127.057 66.474V67.866C127.057 67.9833 127.019 68.0793 126.945 68.154C126.87 68.2287 126.774 68.266 126.657 68.266H125.169ZM130.878 68.426C130.302 68.426 129.784 68.3193 129.326 68.106C128.878 67.882 128.52 67.5833 128.254 67.21C127.987 66.8367 127.854 66.4153 127.854 65.946C127.854 65.1887 128.163 64.5913 128.782 64.154C129.4 63.706 130.222 63.402 131.246 63.242L133.246 62.938V62.714C133.246 62.33 133.166 62.0367 133.006 61.834C132.846 61.6313 132.552 61.53 132.126 61.53C131.827 61.53 131.582 61.5887 131.39 61.706C131.208 61.8233 131.064 61.9833 130.958 62.186C130.862 62.3247 130.728 62.394 130.558 62.394H128.766C128.648 62.394 128.558 62.362 128.493 62.298C128.43 62.2233 128.403 62.138 128.414 62.042C128.414 61.85 128.483 61.6313 128.622 61.386C128.771 61.13 128.995 60.8793 129.294 60.634C129.592 60.3887 129.976 60.186 130.446 60.026C130.915 59.866 131.48 59.786 132.141 59.786C132.835 59.786 133.427 59.866 133.918 60.026C134.408 60.186 134.803 60.41 135.102 60.698C135.411 60.986 135.64 61.3273 135.79 61.722C135.939 62.106 136.014 62.5327 136.014 63.002V67.866C136.014 67.9833 135.971 68.0793 135.885 68.154C135.811 68.2287 135.72 68.266 135.614 68.266H133.758C133.64 68.266 133.544 68.2287 133.47 68.154C133.395 68.0793 133.358 67.9833 133.358 67.866V67.306C133.219 67.5087 133.032 67.6953 132.798 67.866C132.563 68.0367 132.286 68.17 131.966 68.266C131.656 68.3727 131.294 68.426 130.878 68.426ZM131.63 66.602C131.939 66.602 132.216 66.538 132.462 66.41C132.718 66.2713 132.915 66.0633 133.054 65.786C133.203 65.498 133.278 65.1407 133.278 64.714V64.49L131.918 64.73C131.416 64.8153 131.048 64.9487 130.814 65.13C130.59 65.3007 130.478 65.5033 130.478 65.738C130.478 65.9193 130.531 66.074 130.638 66.202C130.744 66.33 130.883 66.4313 131.054 66.506C131.224 66.57 131.416 66.602 131.63 66.602ZM138.219 68.266C138.102 68.266 138.006 68.2287 137.931 68.154C137.856 68.0793 137.819 67.9833 137.819 67.866V60.346C137.819 60.2393 137.856 60.1487 137.931 60.074C138.006 59.9887 138.102 59.946 138.219 59.946H140.059C140.176 59.946 140.272 59.9887 140.347 60.074C140.422 60.1487 140.459 60.2393 140.459 60.346V60.986C140.747 60.6553 141.088 60.3993 141.483 60.218C141.888 60.0367 142.342 59.946 142.843 59.946H143.547C143.654 59.946 143.744 59.9833 143.819 60.058C143.904 60.1327 143.947 60.2287 143.947 60.346V61.994C143.947 62.1007 143.904 62.1967 143.819 62.282C143.744 62.3567 143.654 62.394 143.547 62.394H141.995C141.558 62.394 141.216 62.5167 140.971 62.762C140.736 62.9967 140.619 63.3327 140.619 63.77V67.866C140.619 67.9833 140.576 68.0793 140.491 68.154C140.416 68.2287 140.32 68.266 140.203 68.266H138.219ZM149.341 68.266C148.658 68.266 148.066 68.1593 147.565 67.946C147.074 67.722 146.695 67.3807 146.429 66.922C146.162 66.4527 146.029 65.85 146.029 65.114V62.042H144.781C144.663 62.042 144.562 62.0047 144.477 61.93C144.402 61.8553 144.365 61.7593 144.365 61.642V60.346C144.365 60.2287 144.402 60.1327 144.477 60.058C144.562 59.9833 144.663 59.946 144.781 59.946H146.029V57.306C146.029 57.1887 146.066 57.0927 146.141 57.018C146.226 56.9433 146.322 56.906 146.429 56.906H148.285C148.402 56.906 148.498 56.9433 148.573 57.018C148.647 57.0927 148.685 57.1887 148.685 57.306V59.946H150.685C150.802 59.946 150.898 59.9833 150.973 60.058C151.047 60.1327 151.085 60.2287 151.085 60.346V61.642C151.085 61.7593 151.047 61.8553 150.973 61.93C150.898 62.0047 150.802 62.042 150.685 62.042H148.685V64.89C148.685 65.2527 148.754 65.5407 148.893 65.754C149.031 65.9673 149.266 66.074 149.597 66.074H150.829C150.946 66.074 151.042 66.1113 151.117 66.186C151.191 66.2607 151.229 66.3567 151.229 66.474V67.866C151.229 67.9833 151.191 68.0793 151.117 68.154C151.042 68.2287 150.946 68.266 150.829 68.266H149.341ZM156.393 68.426C155.135 68.426 154.132 68.0847 153.385 67.402C152.639 66.7193 152.249 65.706 152.217 64.362C152.217 64.2873 152.217 64.1913 152.217 64.074C152.217 63.9567 152.217 63.866 152.217 63.802C152.249 62.9593 152.436 62.2393 152.777 61.642C153.129 61.034 153.609 60.5753 154.217 60.266C154.836 59.946 155.556 59.786 156.377 59.786C157.316 59.786 158.089 59.9727 158.697 60.346C159.316 60.7193 159.78 61.226 160.089 61.866C160.399 62.506 160.553 63.2367 160.553 64.058V64.442C160.553 64.5593 160.511 64.6553 160.425 64.73C160.351 64.8047 160.26 64.842 160.153 64.842H155.033C155.033 64.8527 155.033 64.8687 155.033 64.89C155.033 64.9113 155.033 64.9327 155.033 64.954C155.044 65.2633 155.097 65.546 155.193 65.802C155.289 66.058 155.439 66.2607 155.641 66.41C155.844 66.5593 156.089 66.634 156.377 66.634C156.591 66.634 156.767 66.602 156.905 66.538C157.055 66.4633 157.177 66.3833 157.273 66.298C157.369 66.202 157.444 66.122 157.497 66.058C157.593 65.9513 157.668 65.8873 157.721 65.866C157.785 65.834 157.881 65.818 158.009 65.818H159.993C160.1 65.818 160.185 65.85 160.249 65.914C160.324 65.9673 160.356 66.0473 160.345 66.154C160.335 66.3353 160.244 66.554 160.073 66.81C159.903 67.066 159.652 67.322 159.321 67.578C159.001 67.8233 158.596 68.026 158.105 68.186C157.615 68.346 157.044 68.426 156.393 68.426ZM155.033 63.258H157.737V63.226C157.737 62.8847 157.684 62.586 157.577 62.33C157.481 62.074 157.327 61.8767 157.113 61.738C156.911 61.5993 156.665 61.53 156.377 61.53C156.089 61.53 155.844 61.5993 155.641 61.738C155.449 61.8767 155.3 62.074 155.193 62.33C155.087 62.586 155.033 62.8847 155.033 63.226V63.258ZM165.157 68.426C164.645 68.426 164.181 68.346 163.765 68.186C163.36 68.0153 163.008 67.77 162.709 67.45C162.421 67.1193 162.197 66.7247 162.037 66.266C161.877 65.7967 161.787 65.2633 161.765 64.666C161.755 64.4527 161.749 64.266 161.749 64.106C161.749 63.9353 161.755 63.7487 161.765 63.546C161.787 62.97 161.877 62.4527 162.037 61.994C162.197 61.5353 162.421 61.1407 162.709 60.81C162.997 60.4793 163.349 60.2287 163.765 60.058C164.181 59.8767 164.645 59.786 165.157 59.786C165.691 59.786 166.149 59.8767 166.533 60.058C166.917 60.2287 167.243 60.4527 167.509 60.73V57.306C167.509 57.1887 167.547 57.0927 167.621 57.018C167.696 56.9433 167.792 56.906 167.909 56.906H169.861C169.968 56.906 170.059 56.9433 170.133 57.018C170.219 57.0927 170.261 57.1887 170.261 57.306V67.866C170.261 67.9833 170.219 68.0793 170.133 68.154C170.059 68.2287 169.968 68.266 169.861 68.266H168.053C167.936 68.266 167.84 68.2287 167.765 68.154C167.691 68.0793 167.653 67.9833 167.653 67.866V67.354C167.397 67.6633 167.067 67.9193 166.661 68.122C166.256 68.3247 165.755 68.426 165.157 68.426ZM166.021 66.282C166.384 66.282 166.667 66.2073 166.869 66.058C167.083 65.898 167.237 65.6953 167.333 65.45C167.44 65.2047 167.499 64.938 167.509 64.65C167.52 64.4367 167.525 64.234 167.525 64.042C167.525 63.85 167.52 63.6527 167.509 63.45C167.499 63.1833 167.44 62.938 167.333 62.714C167.227 62.4793 167.067 62.2927 166.853 62.154C166.64 62.0047 166.363 61.93 166.021 61.93C165.669 61.93 165.387 62.0047 165.173 62.154C164.971 62.3033 164.827 62.506 164.741 62.762C164.656 63.018 164.603 63.3007 164.581 63.61C164.549 63.9407 164.549 64.2713 164.581 64.602C164.603 64.9113 164.656 65.194 164.741 65.45C164.827 65.706 164.971 65.9087 165.173 66.058C165.387 66.2073 165.669 66.282 166.021 66.282Z" fill="white"/>
<defs>
<filter id="filter0_f_1_298" x="7" y="0" width="279" height="140" filterUnits="userSpaceOnUse" color-interpolation-filters="sRGB">
<feFlood flood-opacity="0" result="BackgroundImageFix"/>
<feBlend mode="normal" in="SourceGraphic" in2="BackgroundImageFix" result="shape"/>
<feGaussianBlur stdDeviation="20" result="effect1_foregroundBlur_1_298"/>
</filter>
</defs>
</svg>
